<?xml version="1.0" encoding="iso-8859-1"?>
<!-- Generator: Adobe Illustrator 16.0.0, SVG Export Plug-In . SVG Version: 6.00 Build 0)  -->
<!DOCTYPE svg PUBLIC "-//W3C//DTD SVG 1.1//EN" "http://www.w3.org/Graphics/SVG/1.1/DTD/svg11.dtd">
<svg version="1.1"
	 id="Layer_1" xmlns:dc="http://purl.org/dc/elements/1.1/" xmlns:cc="http://creativecommons.org/ns#" xmlns:rdf="http://www.w3.org/1999/02/22-rdf-syntax-ns#" xmlns:svg="http://www.w3.org/2000/svg" xmlns:sodipodi="http://sodipodi.sourceforge.net/DTD/sodipodi-0.dtd" xmlns:inkscape="http://www.inkscape.org/namespaces/inkscape" sodipodi:docname="EMEC_dozer3.svg" inkscape:version="0.48.5 r10040"
	 xmlns="http://www.w3.org/2000/svg" xmlns:xlink="http://www.w3.org/1999/xlink" x="0px" y="0px" width="612px" height="792px"
	 viewBox="0 0 612 792" style="enable-background:new 0 0 612 792;" xml:space="preserve">
<g>
	
		<sodipodi:namedview  inkscape:cy="182.64447" inkscape:cx="201.03911" inkscape:zoom="3.1397404" showgrid="false" guidetolerance="10" gridtolerance="10" objecttolerance="10" borderopacity="1" bordercolor="#666666" pagecolor="#ffffff" id="namedview13" inkscape:current-layer="Layer_1" inkscape:window-maximized="0" inkscape:window-y="419" inkscape:window-x="94" inkscape:window-height="480" inkscape:window-width="708" inkscape:pageshadow="2" inkscape:pageopacity="0">
		</sodipodi:namedview>
	<g id="g3">
		<g>
			<defs>
				<rect id="SVGID_1_" y="278.016" width="612" height="301.008"/>
			</defs>
			<clipPath id="SVGID_2_">
				<use xlink:href="#SVGID_1_"  style="overflow:visible;"/>
			</clipPath>
			<path id="path11" style="clip-path:url(#SVGID_2_);" d="M442.236,439.217h-2.846l-2.855-14.266l2.855-4.279l-9.988-45.651
				l2.855-4.278v-7.133h2.846l14.266,55.636h2.856v2.854L442.236,439.217z M432.258,287.999l8.557,45.652l-11.412-44.224
				L432.258,287.999z M89.875,473.453L89.875,473.453L89.875,473.453L89.875,473.453z M78.465,413.538
				c-4.284-2.851-9.989,1.429-9.989,1.429l-2.856-7.135l7.133-31.385l27.108,31.385v2.855l7.132,12.841l-4.277,7.134l-4.284-5.711
				l-5.705-5.706h-7.133C85.594,419.245,81.314,416.395,78.465,413.538 M104.138,373.598l-2.85,8.556h-2.856l-9.982-11.412
				L104.138,373.598z M306.712,387.861h18.552h2.846v4.282h-7.134l-1.421,4.279l-5.701,4.277h-5.712v-12.838H306.712z
				 M345.23,387.861c0,0,5.712-4.279,7.136-7.135c1.422-2.851,0-7.128,0-7.128l14.267,1.423v27.106H355.22l-4.277-2.856v-5.705
				h-5.712V387.861z M590.608,559.056v-4.288l-14.267-42.79l-17.121-54.215l-1.425-37.091c-2.856-4.277-8.565-2.852-8.565-2.852
				l-15.69,5.708l-9.988-1.429l-9.979-8.562l-47.08,8.562v5.706l-8.556-5.706v-5.705h2.845l-11.413-59.92
				c0,0,2.856-5.706,2.856-7.133c0-1.423-1.424-7.129-1.424-7.129l-14.267-58.491l-4.277-1.428l-2.855-1.428l-14.267,4.284
				l1.422,8.556h2.854l11.414,44.224l-2.856,2.855l-7.133-27.106l-2.847-1.428c0,0-14.269-1.428-14.269,1.428
				c0,2.855,1.425,8.561,1.425,8.561h2.856l4.276,21.396l-31.38-1.423h-2.855l-1.434-2.854h-29.955v-51.359c0,0,0-2.85-8.558-2.85
				c-8.555,0-7.133,2.85-7.133,2.85v52.786h-45.647l-1.427-28.535l-2.856-1.428l-1.426-4.278l-1.424-2.85l-5.705-1.428
				c0,0,0-4.279-2.856-7.133c-2.852-2.856-45.653-2.856-45.653-2.856l-11.411-14.262h-54.208v11.412l5.705,7.133h-4.277l1.421,5.707
				v45.652h-14.262l-15.694,8.556l-9.982,14.268l-4.285-2.856h-5.707l-1.426,1.428l-2.852-2.851c0,0,0-4.282-1.428-7.133
				c-2.849-2.855-17.116-8.561-17.116-8.561s-42.797-15.69-45.653-14.267c-2.851,2.856-1.429,8.561-1.429,8.561
				s-39.94,51.359-39.94,57.064C0,409.261,15.69,426.378,15.69,429.229c1.427,2.854,14.267,2.854,14.267,2.854
				s-8.562,41.369-4.278,54.211c4.278,11.414,29.957,17.114,41.369,18.546c2.855,0,2.855,0,1.428-2.854
				c-2.856-1.423-5.707-4.277-8.561-7.131c-4.279-5.704-8.557-11.413-9.985-18.547c-4.277-15.689,1.428-44.225,1.428-44.225h7.133
				v9.988l29.959,27.102l-8.563,1.434l2.856,8.557c-1.428,1.422-1.428,4.278-1.428,5.699l-7.133,5.712l7.133,5.7v2.856l-7.133,5.709
				l7.133,5.703v4.279l-7.133,5.709l7.133,7.136l0,0c0,2.852,1.428,5.698,1.428,7.13l-2.856,8.558l9.989,1.434
				c2.852,1.421,4.279,4.278,7.129,5.699l0,0l4.284,8.567l7.133-5.712l0,0h7.133l5.708,7.134l5.705-7.134h5.706l5.705,7.134
				l5.706-7.134h5.707l5.706,7.134l5.705-7.134h5.707l5.706,7.134l5.705-7.134h5.706l5.711,7.134l5.706-7.134h5.705l5.708,7.134
				l5.706-7.134h5.705l5.706,7.134l5.707-7.134h5.706l5.705,7.134l5.708-7.134h5.705l5.706,7.134l5.705-7.134h5.708l5.708,7.134
				l5.706-7.134h5.708l5.705,7.134l5.705-7.134h5.707l5.706,7.134l5.71-7.134h5.701l5.713,7.134l5.699-7.134h5.71l5.701,7.134
				l5.712-7.134h5.701l5.709,7.134l5.701-7.134h5.712l5.702,7.134l5.708-7.134h5.712l5.701,7.134l5.71-7.134h1.424
				c2.855,0,5.712,0,7.133-1.422l84.172,9.979l1.421-7.134l32.812,4.288l2.857,2.846l21.401,2.855l67.046,7.134l1.424-1.424
				L590.608,559.056z"/>
		</g>
	</g>
</g>
</svg>
