<?xml version="1.0" encoding="iso-8859-1"?>
<!-- Generator: Adobe Illustrator 16.0.0, SVG Export Plug-In . SVG Version: 6.00 Build 0)  -->
<!DOCTYPE svg PUBLIC "-//W3C//DTD SVG 1.1//EN" "http://www.w3.org/Graphics/SVG/1.1/DTD/svg11.dtd">
<svg version="1.1"
	 id="Layer_1" xmlns:dc="http://purl.org/dc/elements/1.1/" xmlns:cc="http://creativecommons.org/ns#" xmlns:rdf="http://www.w3.org/1999/02/22-rdf-syntax-ns#" xmlns:svg="http://www.w3.org/2000/svg" xmlns:sodipodi="http://sodipodi.sourceforge.net/DTD/sodipodi-0.dtd" xmlns:inkscape="http://www.inkscape.org/namespaces/inkscape" sodipodi:docname="EMEC_ex3600 excavator.svg" inkscape:version="0.48.5 r10040"
	 xmlns="http://www.w3.org/2000/svg" xmlns:xlink="http://www.w3.org/1999/xlink" x="0px" y="0px" width="612px" height="792px"
	 viewBox="0 0 612 792" style="enable-background:new 0 0 612 792;" xml:space="preserve">
<sodipodi:namedview  fit-margin-top="0" fit-margin-left="0" inkscape:cy="78.288992" inkscape:cx="-149.96477" inkscape:zoom="0.78493509" showgrid="false" guidetolerance="10" gridtolerance="10" objecttolerance="10" borderopacity="1" bordercolor="#666666" pagecolor="#ffffff" id="namedview13" fit-margin-bottom="0" fit-margin-right="0" inkscape:current-layer="Layer_1" inkscape:window-maximized="0" inkscape:window-y="313" inkscape:window-x="650" inkscape:window-height="559" inkscape:window-width="892" inkscape:pageshadow="2" inkscape:pageopacity="0">
	</sodipodi:namedview>
<g id="g3" transform="matrix(3.47466,0,0,3.47466,-649.76142,-694.58453)">
	<g>
		<defs>
			<rect id="SVGID_1_" x="-4.434" y="179.37" width="559" height="279.5"/>
		</defs>
		<clipPath id="SVGID_2_">
			<use xlink:href="#SVGID_1_"  style="overflow:visible;"/>
		</clipPath>
		<path id="path11" inkscape:connector-curvature="0" style="clip-path:url(#SVGID_2_);" d="M349.147,340.899
			c-1.908-0.636-3.497-2.544-3.497-4.451c0-0.954-0.318-1.59-0.954-2.225v-0.954l0,0l0,0l0,0l0.318-6.677l0,0l3.815-13.99l0,0l0,0
			h0.318l0,0l0.318,0.318L349.147,340.899L349.147,340.899z M298.912,292.572l-3.815,8.902l-0.636,0.318l-0.954,2.544h-5.087
			l0.318-5.087l7.949-6.995L298.912,292.572L298.912,292.572L298.912,292.572z M284.922,323.413l0.954-13.354l1.907-1.272
			l3.497-1.908l0.318,0.636l0,0L284.922,323.413L284.922,323.413z M355.506,290.347c0-0.636-0.318-0.954-0.636-1.272l0,0
			l-11.764-9.22l0,0l0,0l-0.954-0.636c-0.318-0.318-0.635-0.318-0.953-0.318l0,0l0,0h-1.272l0,0l0,0l0,0l0,0l0,0l0,0
			c0,0-0.318,0-0.318,0.318v0.318l0,0l-0.318,0.636c0,0,0,0-0.318,0h-22.574v-0.318l0,0l0,0l0,0l0,0l-1.272-0.318l0,0
			c0,0,0-0.318-0.318-0.318h-2.543l0,0l0,0l0,0l-0.318,0.318h-19.395c0,0,0,0-0.318,0h-0.318c-0.318,0-0.318,0-0.318,0.318l0,0
			l-2.861,3.179h-4.133l0,0l0,0h-7.631l0,0h-15.261v19.394h-1.59l0,0h-11.446v-10.174c0-0.318,0-0.318-0.318-0.318c0,0,0,0-0.318,0
			c0,0,0,0-0.318,0l0,0l0,0c0,0,0-0.318-0.318-0.318v-1.59l0,0v-3.179h-21.938v-4.451c0,0,0,0,0-0.318l0,0l-1.272-1.272v-0.636
			c0-0.318-0.318-0.318-0.636-0.318c0,0-0.318,0-0.318,0.318l-0.318-0.318l0,0c0,0,0,0-0.318,0h-1.272c0,0-0.318,0-0.318,0.318
			v3.497v0.318c0,0,0,0,0.318,0l0,0v3.179h-1.59v-3.179c0,0,0,0,0-0.318l0,0l-1.272-1.272v-0.636c0-0.318-0.318-0.318-0.636-0.318
			c0,0-0.318,0-0.318,0.318l-0.318-0.318l0,0l0,0l0,0l0,0h-1.272c-0.318,0-0.318,0-0.318,0.318v3.497v0.318c0,0,0,0,0.318,0l0,0
			v1.908h-8.902v9.856h-4.451h-0.318l0,0l0,0l0,0l0,0l0,0c0,0-0.318,0-0.318,0.318v0.636l0,0v0.318l0,0l0,0l0,0l0,0l0,0l0,0l0,0l0,0
			l4.451,0.636l0,0v3.179h-7.948v7.313h-0.318h-0.636l-0.636,0.318h-0.954l0,0l0,0l0,0l0,0l0,0h-1.59
			c-0.318,0-0.318,0.318-0.318,0.318v8.584l0,0c-0.318,0-0.318,0-0.318,0.318v12.718c0,0,0,0,0,0.318l0,0l0,0l2.226,2.226
			c0,0,0,0,0.318,0h11.764l0,0l0,0h6.041h2.544l0,0h0.954l0,0h14.943l0,0h3.815h0.318l0.636,0.318l0,0h3.815v2.226h-3.497
			c-0.318,0-0.636,0-0.954,0l-7.313,1.272l0,0v0.318l-2.226,0.318l-0.318-0.318l-0.318,0.318l-2.226,0.318l-0.318-0.318
			l-0.318,0.318h-0.318c-0.636,0-1.272,0.318-1.59,0.636l-0.318-0.318l-0.636,0.954c-0.318,0.318-0.636,0.318-1.272,0.636l0,0
			l-1.272-0.636l-0.636,1.271c-0.318,0-0.636,0.318-0.636,0.318l-1.59-0.318v1.59c-0.318,0.318-0.318,0.318-0.636,0.636l-1.59,0.318
			l0.636,1.589c0,0.318,0,0.318-0.318,0.636l-1.272,0.954l1.272,1.272v0.636l-1.272,0.954l1.272,0.954c0,0.318,0,0.636,0,0.636
			l-0.954,1.272l1.589,0.636c0,0.318,0.318,0.318,0.318,0.636l-0.318,1.59h1.908l0,0c0.318,0.318,0.636,0.318,0.954,0.635
			l0.318,1.59l1.59-0.636l0,0c0.318,0,0.954,0.318,1.272,0.318l1.272,1.272l0.954-1.272c0.318,0,0.636,0,0.954,0.318l0.954,0.954
			l0.954-0.954h1.272l0.636,0.954l0.636-0.954h1.272l0.636,0.954l0.636-0.954h1.59l0.636,0.954l0.636-0.954h1.59l0.636,0.954
			l0.636-0.954h1.59l0.636,0.954l0.636-0.954h1.59l0.636,0.954l0.636-0.954h1.59l0.636,0.954l0.636-0.954h1.59l0.636,0.954
			l0.636-0.954h1.59l0.636,0.954l0.636-0.954h1.59l0.636,0.954l0.636-0.954h1.59l0.636,0.954l0.636-0.954h1.59l0.636,0.954
			l0.636-0.954h1.59l0.636,0.954l0.636-0.954h0.954h0.636l0.636,0.954l0.636-0.954h1.59l0.636,0.954l0.636-0.954h1.59l0.636,0.954
			l0.636-0.954h1.59l0.636,0.954l0.636-0.954h1.272l0.636,0.954l0.954-0.954h1.271l0.636,0.954l0.954-0.954h1.272l0.636,0.954
			l0.954-0.954h1.272l0.954,0.954l0.954-0.954h1.272l0.954,0.954l0.954-0.954h0.318c0.318,0,0.636,0,0.954,0l0.954,0.954l0,0l0,0
			l0.954-1.272h0.636l0.953,1.272l0,0l0,0l0.954-1.272h0.636l1.272,1.272l0.954-1.272c0.318,0,0.636,0,0.636-0.318l1.589,0.636
			l0.318-1.59l0.318-0.318l0,0h1.908l-0.318-1.908c0-0.318,0.318-0.318,0.318-0.636l1.59-0.636l-0.954-1.272
			c0-0.318,0-0.318,0-0.636l1.271-1.271l-1.271-0.954v-0.635l1.271-1.272l-1.59-0.954v-0.318l0,0l0.636-1.589l-1.59-0.318
			l-0.318-0.318v-1.59l-1.59,0.318c-0.318,0-0.318-0.318-0.636-0.318l-0.636-1.59l-1.272,0.954c-0.318,0-0.318,0-0.636,0
			l-0.954-1.59l-0.954,0.954h-0.318h-0.318l-0.954-1.272l-1.272,0.954c-0.318,0-0.318,0-0.636,0l-0.954-1.272l-0.954,0.954
			l-0.954-0.318l-0.636-0.954l-0.635,0.636l-1.59-0.318l-0.636-0.636l-0.636,0.636l-1.907-0.318l-0.318-0.318l-0.318,0.318
			l-2.225-0.318l0,0l0,0l-2.225-0.318c-0.318,0-0.636,0-0.954,0h-1.271v-2.226l0,0h0.636h5.723c0,0,0.318,0,0.318-0.318l1.908-0.954
			c0.636-0.318,0.954-0.635,1.272-0.953c0.636-0.954,0.636-2.226,0-3.18v-0.318l0,0l9.22-20.666l0.318,0.318l0,0
			c0,0,0.318,0,0.318-0.318l0.318-0.636l0.318-0.636h0.318l0,0c0,0,0.318,0,0.318-0.318l1.272-2.862l0,0l0,0l-0.318-0.636
			l4.451-10.174l28.615,1.908c1.59,0.318,2.861,0.954,3.815,1.908l-2.226,1.908c0,0,0,0-0.318,0h-0.318l-0.318,0.636l0,0
			l-1.59,8.902l0,0l0,0c0,0.318,0,0.318,0,0.636l0,0l0,0l0,0l3.179,12.718v0.635l0,0l0,0l0.318,0.954l0,0l0,0l0,0l0,0v1.272l0,0l0,0
			l0.954,3.815l-6.359-2.226h-0.318l0,0l0,0l0,0l0,0l0,0l0,0l0,0l0,0l0.318,9.22v0.318c0,0,0,0,0,0.318l-1.908,6.359l-0.318,0.954
			l-0.954-0.318c-0.318,0-0.318,0-0.318,0.318l-2.544,8.266l0,0l0,0l0,0l0,0l0,0l0,0l0,0l0,0l0.954-0.318l0,0l-1.272,0.954
			l-0.318-0.318l0,0c-0.318-0.318-0.318-0.318-0.636-0.318l0,0l0,0l0,0c-0.318,0-0.318,0-0.636,0l0,0l0,0
			c-0.318-0.318-0.318-0.318-0.636-0.318l0,0l0,0l0,0c-0.954,0-1.59,0.318-2.544,0.636l0,0l0,0l0,0l0,0l-2.543,0.636l0,0l0,0h-0.318
			l0,0l0,0l-0.954,0.318l-1.59,0.318l0,0l0,0l-0.318,0.318c0,0,0,0,0,0.318v0.318c0,0,0,0.318,0.318,0.318h0.318l0,0l0,0h1.272l0,0
			h0.318l0.954,0.318l0,0l0,0l0,0l0,0l0,0h0.318l0,0l0,0l0,0l0,0h1.271l0,0l0,0h0.954l0,0l0,0l2.544,0.318l0,0c0,0,0,0,0.318,0l0,0
			h1.59l0,0l0,0l0.636-0.318h1.59l0,0l0,0c0.636-0.318,1.59-0.318,2.226-0.318l0,0h1.59l0,0c0,0,0.318,0,0.318-0.318v-0.636
			l1.59,0.318c0.954,0,1.908,0.318,2.862,0.318c2.225,0,4.451-0.318,6.676-0.954l3.498-1.271l0,0l0.318,0.635
			c0,0,0,0.318,0.318,0.318l0,0l2.225-0.636l0,0l0,0h0.318l0.318-0.318h0.318c0,0,0,0,0.318-0.318l2.225-5.405c0,0,0,0,0-0.318
			v-0.318l1.908-4.769l0,0l0,0l0,0l0,0v-0.318c0,0,0.318,0,0.318-0.318l0.954-31.158l0.318-0.318c0,0,0,0,0-0.318v-2.544
			c0,0,0,0,0-0.318c0,0,0,0-0.318,0l0,0l-0.318-1.272l0,0l0,0l0,0l0,0h-0.318v-9.538l1.59-2.544l0,0v-0.318l0,0l0,0v-0.318
			L355.506,290.347L355.506,290.347L355.506,290.347L355.506,290.347"/>
	</g>
</g>
</svg>
