<?xml version="1.0" encoding="iso-8859-1"?>
<!-- Generator: Adobe Illustrator 16.0.0, SVG Export Plug-In . SVG Version: 6.00 Build 0)  -->
<!DOCTYPE svg PUBLIC "-//W3C//DTD SVG 1.1//EN" "http://www.w3.org/Graphics/SVG/1.1/DTD/svg11.dtd">
<svg version="1.1"
	 id="Layer_1" xmlns:dc="http://purl.org/dc/elements/1.1/" xmlns:cc="http://creativecommons.org/ns#" xmlns:rdf="http://www.w3.org/1999/02/22-rdf-syntax-ns#" xmlns:svg="http://www.w3.org/2000/svg" xmlns:sodipodi="http://sodipodi.sourceforge.net/DTD/sodipodi-0.dtd" xmlns:inkscape="http://www.inkscape.org/namespaces/inkscape" sodipodi:docname="EMEC_anc equipment1.svg" inkscape:version="0.48.5 r10040"
	 xmlns="http://www.w3.org/2000/svg" xmlns:xlink="http://www.w3.org/1999/xlink" x="0px" y="0px" width="612px" height="792px"
	 viewBox="0 0 612 792" style="enable-background:new 0 0 612 792;" xml:space="preserve">
<sodipodi:namedview  inkscape:cy="198.49368" inkscape:cx="223.88896" inkscape:zoom="3.1397404" showgrid="false" guidetolerance="10" gridtolerance="10" objecttolerance="10" borderopacity="1" bordercolor="#666666" pagecolor="#ffffff" id="namedview13" inkscape:current-layer="Layer_1" inkscape:window-maximized="0" inkscape:window-y="33" inkscape:window-x="572" inkscape:window-height="480" inkscape:window-width="708" inkscape:pageshadow="2" inkscape:pageopacity="0">
	</sodipodi:namedview>
<g id="g3">
	<g>
		<defs>
			<rect id="SVGID_1_" x="-0.514" y="262.602" width="613.029" height="235.776"/>
		</defs>
		<clipPath id="SVGID_2_">
			<use xlink:href="#SVGID_1_"  style="overflow:visible;"/>
		</clipPath>
		<path id="path11" style="clip-path:url(#SVGID_2_);" d="M416.952,341.656v-4.159V341.656L416.952,341.656L416.952,341.656z
			 M369.799,455.382c0-1.382,1.382-1.382,1.382-2.766v-4.168h9.713l2.776-1.386l0,0c0,1.386,0,4.162,1.383,5.545V454h-15.254
			V455.382z M609.738,409.611h-5.552v-22.188c1.393,0,4.159-1.384,4.159-5.543l0,0v-1.392c0-4.159-2.767-6.931-5.541-8.319
			c-45.771-27.736-87.385-30.513-87.385-30.513s-20.795-40.218-24.955-47.154c-4.168-6.935-13.871-8.323-13.871-8.323h-56.865
			c-1.392,0-1.392,1.388-1.392,1.388l0,0l0,0v38.835c-1.385,0-2.768,0-4.16,0v-16.647c0-1.387,0-2.771-1.384-2.771l-9.71-9.711
			v-16.642l0,0v-11.095l-11.095-6.936v11.094l1.383,1.389v23.577c0,1.388,0,2.776,1.392,2.776l9.712,9.707v15.258
			c-16.646,1.383-33.294,6.931-48.547,15.253v49.926l6.936,12.487v6.937h-11.095c-2.776,0-4.159,1.381-4.159,4.158l0,0h-56.865
			v-4.158h34.666c2.777,0,5.554-2.777,5.554-5.553V294.502c0-2.776-2.776-5.547-5.554-5.547h-20.801v-15.259h-44.378v11.095h33.284
			v8.324H34.162c-2.776,0-5.553,2.775-5.553,5.547v90.153H-0.514v12.479h29.124v6.935c0,2.777,2.777,5.551,5.553,5.551h22.189
			c-1.387,1.385-2.775,4.162-2.775,5.543l0,0c0,1.395-1.384,1.395-1.384,2.777h-1.389l0,0l0,0c0,0-1.387,0-1.387,1.383l0,0
			c0,0,0,0,0,1.393l0,0c0,0-2.771,4.16-2.771,5.543l0,0c0,1.395-1.388,1.395-1.388,2.776h-1.388l0,0c0,0,0,0-1.388,1.383l0,0
			c0,0,0,0,0,1.392l0,0c0,0-1.388,5.544,0,6.936l0,0c0,1.384,0,2.776,0,2.776h-1.388l0,0l0,0v1.382l0,0c0,0,0,0,0,1.386l0,0
			c0,1.392,0,5.552,1.388,6.934l0,0c0,1.394,0,2.776,0,2.776h-1.388l0,0l0,0v1.385l0,0c0,0,0,0,0,1.393l0,0
			c0,1.384,1.388,5.541,2.776,5.541l0,0c0,1.395,1.388,1.395,1.388,2.776h-1.388l0,0v1.393l0,0c0,0,0,0,0,1.385l0,0
			c0,1.384,2.771,4.158,4.159,5.543l0,0c0,1.393,1.388,1.393,1.388,2.774l-1.388,1.393l0,0l0,0v1.384l0,0l0,0l0,0
			c0,0,4.159,4.159,5.548,4.159l0,0c1.388,0,1.388,1.393,2.775,1.393v1.385l0,0l0,0c0,0,0,1.382,1.389,1.382l0,0c0,0,0,0,1.383,0
			l0,0c1.389,0,4.164,2.776,5.547,2.776l0,0c1.389,0,1.389,1.393,2.775,1.393v1.385l0,0l0,0c0,0,0,1.382,1.388,1.382l0,0
			c0,0,0,0,1.388,0l0,0c1.385,0,5.547,1.393,6.932,0l0,0c1.386,0,1.386,0,2.775,0v1.393l0,0l0,0h1.388l0,0c0,0,0,0,1.388,0l0,0
			c1.384,0,5.547,0,6.93-1.393l0,0c1.388,0,2.777,0,2.777,0v1.393l0,0l0,0h1.388l0,0c0,0,0,0,1.388,0l0,0
			c1.382,0,5.547-1.393,5.547-2.774l0,0c1.382,0,1.382-1.385,2.771-1.385v1.385l0,0l0,0h1.388l0,0l0,0l0,0
			c1.388,0,4.159-2.777,4.159-4.161l0,0c1.389,0,1.389-1.393,2.777-1.393l1.388,1.393l0,0l0,0h1.382l0,0l0,0l0,0
			c0,0,4.165-4.159,4.165-5.552l0,0c0-1.382,1.382-1.382,1.382-2.776h1.388l0,0c0,0,1.389,0,1.389-1.383l0,0c0,0,0,0,0-1.384l0,0
			c0-1.393,2.774-4.16,2.774-5.552l0,0c0-1.382,1.384-1.382,1.384-2.774h1.389l0,0c0,0,1.388,0,1.388-1.384l0,0c0,0,0,0,0-1.385l0,0
			c0-1.393,1.386-5.552,0-6.935l0,0c0-1.392,0-2.775,0-2.775h1.386l0,0l0,0v-1.393l0,0c0,0,0,0,0-1.385l0,0c0,0,0-1.383,0-2.776
			h9.708l0,0l0,0c0,1.394,0,5.554,1.386,6.938l0,0c0,1.392,0,2.774,0,2.774h-1.386l0,0l0,0v1.383l0,0c0,0,0,0,0,1.395l0,0
			c0,1.382,1.386,5.543,2.774,5.543l0,0c0,1.393,1.389,1.393,1.389,2.774h-1.389l0,0v1.392l0,0c0,0,0,0,0,1.386l0,0
			c0,1.382,2.771,4.158,4.159,5.541l0,0c0,1.395,1.388,1.395,1.388,2.776l-1.388,1.393l0,0l0,0v1.385l0,0l0,0l0,0
			c0,0,4.159,4.158,5.547,4.158l0,0c1.389,0,1.389,1.393,2.777,1.393v1.385l0,0l0,0c0,0,0,1.382,1.389,1.382l0,0c0,0,0,0,1.382,0
			l0,0c1.389,0,4.165,2.776,5.548,2.776l0,0c1.388,0,1.388,1.393,2.776,1.393v1.383l0,0c0,0,0,1.384,1.388,1.384l0,0
			c0,0,0,0,1.383,0l0,0c1.388,0,5.553,1.393,6.936,0l0,0c1.388,0,1.388,0,2.776,0v1.393l0,0l0,0h1.386l0,0c0,0,0,0,1.385,0l0,0
			c1.388,0,5.547,0,6.936-1.393l0,0c1.389,0,2.775,0,2.775,0v1.393l0,0l0,0h1.388l0,0c0,0,0,0,1.385,0l0,0
			c1.388,0,5.551-1.393,5.551-2.776l0,0c1.385,0,1.385-1.383,2.771-1.383v1.383l0,0h1.389l0,0l0,0l0,0c0,0,4.159-2.775,4.159-4.159
			l0,0c1.389,0,1.389-1.393,2.777-1.393l1.382,1.393l0,0h1.388l0,0l0,0l0,0c0,0,4.165-4.159,4.165-5.552l0,0
			c0-1.384,1.382-1.384,1.382-2.776h1.388l0,0l0,0c0,0,1.389,0,1.389-1.382l0,0c0,0,0,0,0-1.385l0,0c0-1.393,2.776-4.16,2.776-5.552
			l0,0c0-1.384,1.383-1.384,1.383-2.776h1.389l0,0l0,0c0,0,1.388,0,1.388-1.382l0,0c0,0,0,0,0-1.386l0,0c0-1.392,1.388-5.55,0-6.935
			l0,0c0-1.393,0-2.774,0-2.774h1.388l0,0l0,0c0,0,0,0,0-1.384h6.934l13.867-4.168h27.741V440.13l9.707,5.551h38.832v6.927
			c0,1.393,0,1.393,0,2.774l0,0v8.329h38.835c0,1.383,1.395,2.766,1.395,2.766l0,0c0,1.395,1.382,1.395,1.382,2.776h-1.382l0,0
			v1.393l0,0c0,0,0,0,0,1.385l0,0c0,1.384,2.764,4.158,4.158,5.543l0,0c0,1.393,1.383,1.393,1.383,2.774l-1.383,1.393l0,0l0,0v1.384
			l0,0l0,0l0,0c0,0,4.159,4.159,5.541,4.159l0,0c1.396,0,1.396,1.393,2.777,1.393v1.385l0,0l0,0c0,0,0,1.382,1.393,1.382l0,0
			c0,0,0,0,1.384,0l0,0c1.383,0,4.159,2.776,5.541,2.776l0,0c1.393,0,1.393,1.383,2.777,1.383v1.395l0,0c0,0,0,1.382,1.393,1.382
			l0,0c0,0,0,0,1.382,0l0,0c1.384,0,5.554,1.393,6.936,0l0,0c1.385,0,1.385,0,2.776,0v1.393l0,0l0,0h1.383l0,0c0,0,0,0,1.384,0l0,0
			c1.393,0,5.552,0,6.936-1.393l0,0c1.393,0,2.775,0,2.775,0v1.393l0,0l0,0h1.395l0,0c0,0,0,0,1.382,0l0,0
			c1.384,0,5.554-1.393,5.554-2.774l0,0c1.382,0,1.382-1.385,2.766-1.385v1.385l0,0l0,0h1.393l0,0l0,0l0,0
			c1.383,0,4.159-2.777,5.542-4.161l0,0c1.395,0,1.395-1.393,2.776-1.393l1.383,1.393l0,0h1.394l0,0l0,0l0,0
			c0,0,4.159-4.159,4.159-5.552l0,0c0-1.382,1.383-1.382,1.383-2.776h1.392l0,0l0,0c0,0,1.385,0,1.385-1.383l0,0c0,0,0,0,0-1.384
			l0,0c0-1.393,2.774-4.167,2.774-5.552l0,0c0-1.382,1.386-1.382,1.386-2.774h1.391l0,0l0,0c0,0,1.385,0,1.385-1.384l0,0
			c0,0,0,0,0-1.385l0,0c0-1.393,1.383-5.552,0-6.935l0,0c0-1.392,0-2.775,0-2.775h1.383l0,0l0,0v-1.393l0,0l0,0h30.518l90.149-18.03
			c6.936-1.383,11.094-2.767,11.094-6.926v-13.87C612.515,409.611,609.738,409.611,609.738,409.611"/>
	</g>
</g>
</svg>
