<?xml version="1.0" encoding="iso-8859-1"?>
<!-- Generator: Adobe Illustrator 16.0.0, SVG Export Plug-In . SVG Version: 6.00 Build 0)  -->
<!DOCTYPE svg PUBLIC "-//W3C//DTD SVG 1.1//EN" "http://www.w3.org/Graphics/SVG/1.1/DTD/svg11.dtd">
<svg version="1.1"
	 id="Layer_1" xmlns:dc="http://purl.org/dc/elements/1.1/" xmlns:cc="http://creativecommons.org/ns#" xmlns:rdf="http://www.w3.org/1999/02/22-rdf-syntax-ns#" xmlns:svg="http://www.w3.org/2000/svg" xmlns:sodipodi="http://sodipodi.sourceforge.net/DTD/sodipodi-0.dtd" xmlns:inkscape="http://www.inkscape.org/namespaces/inkscape" sodipodi:docname="EMEC_789 Rear Dump Truck.svg" inkscape:version="0.48.5 r10040"
	 xmlns="http://www.w3.org/2000/svg" xmlns:xlink="http://www.w3.org/1999/xlink" x="0px" y="0px" width="612px" height="792px"
	 viewBox="0 0 612 792" style="enable-background:new 0 0 612 792;" xml:space="preserve">
<g>
	
		<sodipodi:namedview  inkscape:cy="198.66444" inkscape:cx="214.15154" inkscape:zoom="3.1397404" showgrid="false" guidetolerance="10" gridtolerance="10" objecttolerance="10" borderopacity="1" bordercolor="#666666" pagecolor="#ffffff" id="namedview13" inkscape:current-layer="Layer_1" inkscape:window-maximized="0" inkscape:window-y="109" inkscape:window-x="895" inkscape:window-height="480" inkscape:window-width="708" inkscape:pageshadow="2" inkscape:pageopacity="0">
		</sodipodi:namedview>
	<g id="g3">
		<g>
			<defs>
				<rect id="SVGID_1_" y="247.653" width="612" height="296.693"/>
			</defs>
			<clipPath id="SVGID_2_">
				<use xlink:href="#SVGID_1_"  style="overflow:visible;"/>
			</clipPath>
			<path id="path11" style="clip-path:url(#SVGID_2_);" d="M179.178,384.944l-8.144-4.653l-1.164,2.329
				c0,1.164-1.164,2.324-2.325,3.489v2.329C172.198,387.273,175.687,386.109,179.178,384.944 M308.325,483.847l1.164,1.159l0,0
				h4.657l-1.168-5.816l-1.16-5.819h-3.493V483.847L308.325,483.847z M558.478,350.041h-13.964l3.489,3.492c0,0,1.167,1.161,0,3.49
				v6.982h10.475V350.041z M558.478,326.773h-18.614v16.288l2.32,2.326h16.294V326.773L558.478,326.773z M536.367,326.773h-2.321
				l2.321,4.652c0,1.165-2.321,1.165-3.49,2.325c1.169,2.329,2.33,4.653,2.33,4.653l2.328,2.329v-13.96H536.367z M561.967,361.677
				L561.967,361.677v-13.961v1.165V361.677z M565.457,346.551h11.636v-19.778h-8.146h-1.161c-1.169,0-2.328,0-2.328,0
				s-1.16,1.164-1.16,2.324v17.454H565.457z M565.457,361.677h11.636V348.88h-11.636V361.677z M579.421,346.551h17.446v-19.778
				h-17.446V346.551z M579.421,361.677h17.446V348.88h-17.446V361.677z M582.91,511.768h19.775v-12.796l0,0l0,0
				c0,0,0,1.16-1.161,1.16c-1.16,2.328-4.657,3.489-8.146,3.489h-1.16c-3.489,0-6.979-1.161-8.147-2.328
				c-1.16-1.161-1.16-2.321,1.168-2.321c0,0,0,0,1.162,0c1.159,0,2.328,1.16,3.488,1.16c1.168,0,1.168,0,1.168-1.16v-1.17h-6.986
				v-2.328h3.489c0,0,0,0-1.159,0h-3.49V511.768z M582.91,530.383h19.775v-16.287H582.91V530.383z M606.182,361.677L606.182,361.677
				v9.308l0,0V348.88h-4.657v12.796H606.182L606.182,361.677z M606.182,326.773h-4.657v19.778h4.657V326.773z M0,322.119
				l2.329-8.146l4.654-2.326l157.068-59.34h107.041v-1.16h5.818v1.16h1.164h299.018v-2.325h-3.49v-2.329h3.49h1.161h9.306h19.782
				v22.108h-29.088c0,0-1.161,0-59.334,4.653c-2.328,0-5.817,0-8.146,1.164c-32.58,2.325-53.523,9.308-67.487,19.779
				c-3.489,2.325-5.819,4.653-8.139,6.982c-1.169,1.161-2.33,2.325-3.49,4.654c0,1.161-1.168,1.161-1.168,2.325
				c-1.16,1.164-2.328,2.328-2.328,3.493c-2.321,3.49-4.65,8.143-5.818,12.796c0,0,0,0,0,1.165l-1.16,2.324l-12.797,27.925l0,0
				h-10.475l-20.943,40.721v25.594l-10.469-1.16v1.16l15.125,1.168c1.16,0,3.49,0,4.651-1.168c1.167,0,1.167-1.16,1.167-1.16
				s1.161-1.161,1.161-2.33l6.986-29.085h1.16v-4.654l0,0v-11.636v-1.161v-5.818l0,0v-4.654l0,0h23.271l8.14-19.779l0,0
				l20.941-51.193h61.671c2.328,0,8.146,11.632,13.964,22.104l-3.497-9.308c0,0,2.33-2.325,3.497,0l9.308,17.454h29.081
				c1.17,0,1.17,1.161,1.17,1.161v1.165v19.778c0,0,0,0,0,1.165v-17.45c0-2.329,0-3.493,1.16-4.654
				c1.159-1.165,3.489-1.165,4.656-1.165h40.719v3.49l0,0v4.653c0,0,0,0,0,1.164V473.37v1.168v1.162h2.328v5.817h1.161v5.816h-1.161
				v5.818h-6.979v37.23l0,0l0,0H582.91l0,0l0,0v-37.23h-3.489v-2.328l0,0v-5.818l-30.251-3.488
				c-1.167,5.816-3.497,11.635-5.816,16.284l-2.33-1.158l-1.16,1.158l-1.168,2.33l2.328,1.161
				c-3.488,5.816-6.978,10.475-10.475,15.124l-2.321-1.16l-1.168,1.16l-3.488,2.328l1.167,1.17
				c-4.658,4.649-10.475,9.306-15.133,12.796l-1.161-2.328l-1.16,1.159l-2.328,1.169l1.16,2.328
				c-5.818,3.489-11.636,5.818-17.445,6.979l-1.169-2.33h-1.161h-2.328v2.33c-5.818,1.16-11.636,2.328-17.454,2.328h-1.161v-2.328
				h-1.167h-2.321v2.328c-6.986,0-13.964-2.328-20.943-3.489l1.16-2.329l-1.16-1.168h-1.168l-1.16,2.328
				c-5.819-2.328-11.636-4.649-16.294-8.146l1.168-2.321l-1.168-1.168l-1.16-1.16l-1.161,2.328
				c-5.816-3.489-10.475-8.146-13.964-12.804l2.328-2.321l-1.167-1.167l-1.161-1.161l-2.33,1.161
				c-3.488-4.651-6.978-10.469-10.466-17.455l2.328-1.16l-1.168-2.328v-1.161l-2.33,1.161c-2.321-5.819-3.488-12.796-4.649-18.615
				h2.328v-2.328v-1.161h-2.328c0-2.328,0-3.49,0-5.818c0-1.158,0-2.328,0-2.328l-19.782-2.328v30.258
				c0,4.649-3.489,9.308-8.138,9.308h-36.07c-3.495,0-6.986-3.498-6.986-6.986l-8.142,1.167c0,1.161-1.164,2.321-1.164,3.491
				c-3.49,4.649-9.307,4.649-13.962,2.328c-4.653-3.498-4.653-9.308-2.328-13.966c1.164-1.159,1.164-1.159,2.328-2.328l-1.164-8.14
				h-4.653l-1.164-6.985h1.164l-1.164-15.126l0,0l-9.308-1.16c0,1.16,0,3.49,1.164,4.649h-2.328v1.169v2.321h2.328
				c0,2.328,0,3.498,0,5.816c0,4.658,0,9.315-1.164,13.967h-2.325v1.16v2.328h2.325c-1.164,5.818-3.489,12.796-6.979,18.615
				l-2.328-1.161l-1.164,1.161l-1.165,2.328l2.329,1.169c-3.489,5.809-6.983,10.467-10.472,15.125l-2.328-1.17l-1.161,1.17
				l-1.164,1.16l1.164,1.161c-4.655,4.656-10.472,9.306-15.126,12.803l-1.164-2.328l-1.164,1.16l-2.328,1.168l1.164,2.321
				c-5.819,3.497-11.636,5.818-17.451,6.986l-1.165-2.328h-1.164h-2.325v2.328c-5.818,1.16-11.635,2.328-17.454,2.328h-1.164v-2.328
				h-1.164h-2.325v2.328c-6.983,0-13.96-2.328-20.943-3.496l1.164-2.321l-1.164-1.169h-1.164l-1.166,2.33
				c-5.817-2.33-11.63-4.658-16.289-8.147l1.164-2.32l-1.164-1.168l-1.16-1.162l-1.165,2.321
				c-5.818-3.489-10.471-8.139-13.96-12.797l2.325-2.328l-1.166-1.16l-1.159-1.161l-2.33,1.161
				c-4.653-4.658-6.981-10.467-10.472-17.455l2.33-1.158l-1.166-2.33v-1.161l-2.328,1.161c-2.325-5.817-3.489-12.796-4.653-18.613
				h2.328v-2.33v-1.161h-2.328c0-2.328,0-3.488,0-5.818c0-4.656,0-9.306,1.164-12.796h2.328v-2.328v-1.168h-2.328
				c1.164-6.979,3.489-12.796,6.983-18.614l2.325,1.167l1.164-2.328v-1.167l-2.325-1.161c3.489-5.817,6.978-10.468,11.632-15.126
				l3.492,2.33l1.161-1.169l1.164-1.161l-2.325-2.328c6.979-6.979,15.126-12.797,25.598-16.285v-6.983l0,0l0,0c0,0,0,0,0-1.164l0,0
				l0,0c0,0,0,0,0-1.165l0,0l-1.166-1.16l0,0c0,0,0,0-1.164-1.164c-1.164-1.165-2.325-2.329-3.489-3.493l-58.177-17.45
				l-22.107,3.489c-3.489,1.164-4.653,0-5.813-2.325l-3.492-8.147c-1.165-2.325-6.983-1.164-5.819,2.329l3.493,8.143
				c2.326,4.654-2.329,8.147-5.818,4.654l-34.904-26.761l-8.146-1.161c-1.164,0-1.164,0-1.164-1.164l-1.161-1.164c0,0,0,0,0-1.165
				c0-1.164-1.165-1.164-1.165-2.325l-2.329-8.147l-3.489-1.164l0,0L0,322.119z"/>
		</g>
	</g>
</g>
</svg>
