<?xml version="1.0" encoding="UTF-8" standalone="no"?>
<svg
   xmlns:dc="http://purl.org/dc/elements/1.1/"
   xmlns:cc="http://creativecommons.org/ns#"
   xmlns:rdf="http://www.w3.org/1999/02/22-rdf-syntax-ns#"
   xmlns:svg="http://www.w3.org/2000/svg"
   xmlns="http://www.w3.org/2000/svg"
   xmlns:sodipodi="http://sodipodi.sourceforge.net/DTD/sodipodi-0.dtd"
   xmlns:inkscape="http://www.inkscape.org/namespaces/inkscape"
   viewBox="0 0 1024 1024"
   id="svg2"
   version="1.1"
   inkscape:version="0.91 r13725"
   sodipodi:docname="delete.svg">
  <metadata
     id="metadata10">
    <rdf:RDF>
      <cc:Work
         rdf:about="">
        <dc:format>image/svg+xml</dc:format>
        <dc:type
           rdf:resource="http://purl.org/dc/dcmitype/StillImage" />
      </cc:Work>
    </rdf:RDF>
  </metadata>
  <defs
     id="defs8" />
  <sodipodi:namedview
     pagecolor="#ffffff"
     bordercolor="#666666"
     borderopacity="1"
     objecttolerance="10"
     gridtolerance="10"
     guidetolerance="10"
     inkscape:pageopacity="0"
     inkscape:pageshadow="2"
     inkscape:window-width="698"
     inkscape:window-height="786"
     id="namedview6"
     showgrid="false"
     inkscape:zoom="0.23046875"
     inkscape:cx="512"
     inkscape:cy="512"
     inkscape:window-x="169"
     inkscape:window-y="25"
     inkscape:window-maximized="0"
     inkscape:current-layer="svg2" />
  <path
     d="M812.392 167.43h-119.67v-77.246c0-15.137-13.61-28.776-28.753-28.776-1.442 0-3.031 1.441-3.031 1.441-1.441 0-1.441-1.441-3.031-1.441h-286.26c-15.137 0-27.296 13.633-27.296 28.776v77.246h-121.124c-34.865 0-60.593 27.263-60.593 62.097v99.962h53.029v572.511c0 34.836 25.725 60.586 60.533 60.586h483.172c34.865 0 62.104-25.753 62.104-60.586v-572.511h53.027v-99.962c0-34.836-27.296-62.097-62.104-62.097zm-411.986-49.983h234.743v49.983h-234.743v-49.983zm365.015 784.56c0 3.031-3.031 4.535-6.061 4.535h-483.172c-3.031 0-4.535-1.441-4.535-4.535v-572.511h493.762v572.511zm51.508-628.56h-598.242v-43.92c0-3.031 1.441-6.061 4.535-6.061h589.165c3.031 0 4.535 3.031 4.535 6.061v43.92zm-196.912 122.684v460.436h56.054v-460.436h-56.054zm-130.263 0v460.436h56.054v-460.436h-56.054zm-128.692 0v460.436h55.996v-460.436h-55.996z"
     id="path4"
     style="fill:#626564;fill-opacity:1" />
</svg>
