<?xml version="1.0" encoding="UTF-8" standalone="no"?>
<svg
   xmlns:dc="http://purl.org/dc/elements/1.1/"
   xmlns:cc="http://creativecommons.org/ns#"
   xmlns:rdf="http://www.w3.org/1999/02/22-rdf-syntax-ns#"
   xmlns:svg="http://www.w3.org/2000/svg"
   xmlns="http://www.w3.org/2000/svg"
   xmlns:sodipodi="http://sodipodi.sourceforge.net/DTD/sodipodi-0.dtd"
   xmlns:inkscape="http://www.inkscape.org/namespaces/inkscape"
   viewBox="0 0 1024 1024"
   id="svg2"
   version="1.1"
   inkscape:version="0.91 r13725"
   sodipodi:docname="reject.svg">
  <metadata
     id="metadata10">
    <rdf:RDF>
      <cc:Work
         rdf:about="">
        <dc:format>image/svg+xml</dc:format>
        <dc:type
           rdf:resource="http://purl.org/dc/dcmitype/StillImage" />
      </cc:Work>
    </rdf:RDF>
  </metadata>
  <defs
     id="defs8" />
  <sodipodi:namedview
     pagecolor="#ffffff"
     bordercolor="#666666"
     borderopacity="1"
     objecttolerance="10"
     gridtolerance="10"
     guidetolerance="10"
     inkscape:pageopacity="0"
     inkscape:pageshadow="2"
     inkscape:window-width="1440"
     inkscape:window-height="897"
     id="namedview6"
     showgrid="false"
     inkscape:zoom="0.23046875"
     inkscape:cx="512"
     inkscape:cy="512"
     inkscape:window-x="-8"
     inkscape:window-y="-8"
     inkscape:window-maximized="1"
     inkscape:current-layer="svg2" />
  <path
     d="M638.359 512.005l276.828-276.829c6.646-6.646 6.646-17.416 0-24.062l-102.271-102.293c-3.194-3.194-7.535-4.983-12.036-4.983-4.513 0-8.841 1.797-12.036 4.983l-276.84 276.84-276.84-276.84c-6.38-6.38-17.681-6.38-24.062 0l-102.282 102.293c-6.646 6.646-6.646 17.416 0 24.062l276.829 276.829-276.829 276.829c-6.646 6.646-6.646 17.416 0 24.062l102.282 102.293c3.194 3.194 7.524 4.983 12.036 4.983s8.841-1.797 12.036-4.983l276.84-276.84 276.84 276.84c3.194 3.194 7.524 4.983 12.036 4.983 4.502 0 8.841-1.797 12.036-4.983l102.282-102.293c6.646-6.646 6.646-17.426 0-24.062l-276.829-276.829z"
     id="path4"
     style="fill:#626564;fill-opacity:1" />
</svg>
