<?xml version="1.0" encoding="UTF-8" standalone="no"?>
<svg
   xmlns:dc="http://purl.org/dc/elements/1.1/"
   xmlns:cc="http://creativecommons.org/ns#"
   xmlns:rdf="http://www.w3.org/1999/02/22-rdf-syntax-ns#"
   xmlns:svg="http://www.w3.org/2000/svg"
   xmlns="http://www.w3.org/2000/svg"
   xmlns:sodipodi="http://sodipodi.sourceforge.net/DTD/sodipodi-0.dtd"
   xmlns:inkscape="http://www.inkscape.org/namespaces/inkscape"
   viewBox="0 0 492 492"
   id="svg2"
   version="1.1"
   inkscape:version="0.91 r13725"
   sodipodi:docname="dash-maintenance - Copy.svg"
   width="492"
   height="492">
  <metadata
     id="metadata10">
    <rdf:RDF>
      <cc:Work
         rdf:about="">
        <dc:format>image/svg+xml</dc:format>
        <dc:type
           rdf:resource="http://purl.org/dc/dcmitype/StillImage" />
        <dc:title></dc:title>
      </cc:Work>
    </rdf:RDF>
  </metadata>
  <defs
     id="defs8" />
  <sodipodi:namedview
     pagecolor="#ffffff"
     bordercolor="#666666"
     borderopacity="1"
     objecttolerance="10"
     gridtolerance="10"
     guidetolerance="10"
     inkscape:pageopacity="0"
     inkscape:pageshadow="2"
     inkscape:window-width="1920"
     inkscape:window-height="1017"
     id="namedview6"
     showgrid="false"
     fit-margin-top="0"
     fit-margin-left="0"
     fit-margin-right="0"
     fit-margin-bottom="0"
     inkscape:zoom="0.921875"
     inkscape:cx="394.43078"
     inkscape:cy="200.94"
     inkscape:window-x="2152"
     inkscape:window-y="-8"
     inkscape:window-maximized="1"
     inkscape:current-layer="svg2" />
  <g
     transform="translate(-1.161017,0)"
     id="g3">
    <g
       id="g5">
      <path
         inkscape:connector-curvature="0"
         style="fill:#010002"
         d="m 370.5,254 c -14.667,-11.333 -36.667,-20.667 -66,-28 l -23,-5 0,-97 c 0.667,0.667 1.333,1 2,1 0.667,0 1,0.333 1,1 19.334,9.333 29.668,25.333 31,48 l 77,0 c -1.333,-40 -16.333,-70.667 -45,-92 -18.667,-14 -40.667,-23.333 -66,-28 l 0,-54 -71,0 0,52 c -33.333,4 -59.667,14.667 -79,32 -25.333,22.667 -38,51.334 -38,86 0,37.333 13,65 39,83 14,10 40,19.333 78,28 l 0,104 c -14,-4 -24.667,-10.333 -32,-19 -8,-9.333 -13,-22 -15,-38 l -76,0 c 0,39.333 14.333,70.333 43,93 20.667,16 47.333,26.333 80,31 l 0,40 71,0 0,-39 c 34.667,-4.667 62.333,-15.667 83,-33 26.667,-23.333 40,-52.667 40,-88 0,-34 -11.333,-60 -34,-78 z m -160,-50 c -11.333,-3.333 -19.333,-6.333 -24,-9 -12.667,-6.667 -19,-17 -19,-31 0,-15.333 6.333,-27 19,-35 6.667,-4 14.667,-7.333 24,-10 l 0,85 z m 83,179 c -3.333,1.333 -7.333,2.333 -12,3 l 0,-89 c 12.667,4 22.333,8 29,12 11.333,7.333 17,17.333 17,30 0,21.333 -11.333,36 -34,44 z"
         id="path7" />
    </g>
  </g>
  <g
     transform="translate(-87.5,0)"
     id="g9" />
  <g
     transform="translate(-87.5,0)"
     id="g11" />
  <g
     transform="translate(-87.5,0)"
     id="g13" />
  <g
     transform="translate(-87.5,0)"
     id="g15" />
  <g
     transform="translate(-87.5,0)"
     id="g17" />
  <g
     transform="translate(-87.5,0)"
     id="g19" />
  <g
     transform="translate(-87.5,0)"
     id="g21" />
  <g
     transform="translate(-87.5,0)"
     id="g23" />
  <g
     transform="translate(-87.5,0)"
     id="g25" />
  <g
     transform="translate(-87.5,0)"
     id="g27" />
  <g
     transform="translate(-87.5,0)"
     id="g29" />
  <g
     transform="translate(-87.5,0)"
     id="g31" />
  <g
     transform="translate(-87.5,0)"
     id="g33" />
  <g
     transform="translate(-87.5,0)"
     id="g35" />
  <g
     transform="translate(-87.5,0)"
     id="g37" />
</svg>
