<svg xmlns="http://www.w3.org/2000/svg" viewBox="0 0 1024 1024"><path d="M529.952 669.568c23.072 0 41.824-18.848 41.824-41.92 0-23.04-18.752-41.76-41.824-41.76l-189.44-139.36 147.648 183.776c1.376 21.888 19.584 39.232 41.824 39.232zm-226.752 123.456h417.6v99.104h-417.6v-99.104zm570.848-511.2c-96.704-96.704-225.28-149.952-362.048-149.952s-265.344 53.248-362.048 149.952-149.952 225.28-149.952 362.048c0 88.288 22.24 173.184 64.032 248.256h95.68l69.984-40.416-30.912-53.536-89.984 51.968c-31.808-61.92-49.76-132.032-49.76-206.272 0-13.152.608-26.144 1.696-39.008l107.296 18.912 10.72-60.896-108.576-19.136c19.392-85.664 63.136-162.176 123.552-221.888l73.568 87.68 47.36-39.744-74.112-88.32c67.968-51.04 150.688-83.392 240.544-89.472v117.248h61.824v-117.248c89.824 6.08 172.576 38.464 240.544 89.504l-74.112 88.32 47.36 39.744 73.568-87.68c60.416 59.712 104.16 136.224 123.552 221.888l-108.576 19.136 10.752 60.864 107.296-18.912c1.088 12.864 1.696 25.856 1.696 39.008 0 74.24-17.952 144.384-49.76 206.272l-90.016-51.968-30.912 53.536 69.984 40.416h95.712c41.76-75.104 64-159.968 64-248.256 0-136.768-53.248-265.344-149.952-362.048z"/></svg>