<svg xmlns="http://www.w3.org/2000/svg" viewBox="0 0 1296 1024"><path d="M759.187 675.615c-79.811 0-143.662 63.85-143.662 143.662s63.85 143.662 143.662 143.662c79.811 0 143.662-63.85 143.662-143.662s-59.859-143.662-143.662-143.662zm0 259.389c-63.85 0-115.727-51.879-115.727-115.727s51.879-115.727 115.727-115.727c63.85 0 115.727 51.879 115.727 115.727s-51.879 115.727-115.727 115.727zm83.801-111.737c0 46.283-37.52 83.803-83.803 83.803s-83.802-37.52-83.802-83.803c0-46.283 37.52-83.802 83.802-83.802s83.803 37.52 83.803 83.802zm-666.431-147.652c-79.811 0-143.662 63.85-143.662 143.662s63.85 143.662 143.662 143.662c79.811 0 143.662-63.85 143.662-143.662s-63.85-143.662-143.662-143.662zm0 259.389c-63.849 0-115.727-51.879-115.727-115.727s51.879-115.727 115.727-115.727c63.849 0 115.727 51.879 115.727 115.727s-51.879 115.727-115.727 115.727zm83.804-111.737c0 46.283-37.52 83.803-83.802 83.803s-83.802-37.52-83.802-83.803c0-46.283 37.52-83.802 83.802-83.802s83.802 37.52 83.802 83.802zm-335.21-474.882l47.887-95.774h79.811l71.831-103.756h67.841l63.849-87.793 51.879 43.896 123.709-3.99 63.849 59.859v59.859h71.831l51.879 47.887s-19.953 3.99-35.915 15.962c-11.971 11.972-31.925 35.915-31.925 35.915l-626.526 27.935zm1149.292 251.408l-95.774-43.896-11.971-95.775c-7.982-51.879-47.887-91.783-99.765-91.783l-83.802-3.99c-19.953 0-39.906 11.971-47.887 31.925l-35.915 139.67-51.879-3.99 87.793-183.567 215.493-31.925-7.982-59.859-299.295 11.972-79.811 71.831-638.496 31.925-55.87 143.662 159.624 163.615 11.972 11.971c31.925-35.915 79.811-55.87 131.689-55.87 103.756 0 187.559 83.802 187.559 187.559v15.962h211.502c-3.99-43.896 7.982-91.783 43.896-143.662 7.982-11.971 19.953-23.944 35.915-31.925 143.662-83.803 295.305 19.953 295.305 155.634 0 23.944-3.99 47.887-11.971 71.831h87.793c31.925 0 59.859-27.935 59.859-59.859v-219.483c0-3.99-3.99-7.982-7.982-11.971zm-598.59-19.952h-131.689l43.896-143.662-119.718 3.99-51.878 139.671h-123.709l47.887-139.671-135.68 7.982-35.915 99.765-59.859-47.887 43.896-95.775 606.571-35.915-83.803 211.502zm407.04-19.954l-75.821-3.99c-11.971 0-19.953-11.972-15.962-23.944l15.962-107.745c0-11.972 11.971-15.962 19.953-15.962h19.953c27.935 0 47.887 23.944 51.879 51.878l3.99 79.811c3.99 7.982-7.982 19.953-19.953 19.953z"/></svg>