<svg xmlns="http://www.w3.org/2000/svg" viewBox="0 0 1024 1024"><path d="M1002.937 817.876l-460.556-394.762c21.441-40.289 33.633-86.274 33.633-135.107 0-159.076-128.931-288.007-288.007-288.007-29.089 0-57.185 4.32-83.65 12.352l166.404 166.404c24.897 24.897 24.897 65.634 0 90.498l-101.507 101.507c-24.897 24.897-65.634 24.897-90.498 0l-166.404-166.404c-8.032 26.465-12.352 54.561-12.352 83.65 0 159.076 128.931 288.007 288.007 288.007 48.833 0 94.818-12.16 135.107-33.633l394.762 460.556c22.913 26.721 62.018 28.225 86.914 3.328l101.507-101.507c24.897-24.897 23.393-64.002-3.328-86.914z"/></svg>