<svg xmlns="http://www.w3.org/2000/svg" viewBox="0 0 1024 1024"><path d="M581.752 387.854c22.672-20.1 37.262-49.128 37.262-81.838 0-60.708-49.192-109.866-109.866-109.866s-109.866 49.156-109.866 109.866c0 32.708 14.59 61.738 37.262 81.838l-165.092 549.926c-7.758 25.85 6.868 53.076 32.708 60.836 25.788 7.634 53.05-6.93 60.808-32.708l48.164-160.442h192.032l48.166 160.442c6.348 21.126 25.788 34.762 46.762 34.762 4.642 0 9.358-.68 14.046-2.052 25.84-7.76 40.466-34.986 32.708-60.836l-165.094-549.928zm-149.09 352.51l76.488-254.76 76.514 254.76h-153.002zm-92.454-265.406c6.348 6.348 14.688 9.53 23.028 9.53 8.304 0 16.644-3.182 22.994-9.53 12.732-12.732 12.732-33.322 0-46.02-32.806-32.834-50.896-76.48-50.896-122.922 0-46.432 18.09-90.076 50.896-122.918 12.732-12.732 12.732-33.326 0-46.048-12.734-12.706-33.324-12.706-46.022 0-45.156 45.12-69.97 105.116-69.97 168.966 0 63.82 24.814 123.822 69.97 168.942zm291.862 0c6.348 6.348 14.688 9.53 22.992 9.53 8.34 0 16.68-3.182 23.03-9.53 45.156-45.12 70.004-105.122 70.004-168.942-.036-63.852-24.85-123.848-70.004-168.966-12.698-12.706-33.288-12.706-46.022 0-12.734 12.722-12.734 33.316 0 46.048 32.842 32.842 50.922 76.486 50.922 122.918 0 46.442-18.082 90.088-50.922 122.922-12.734 12.696-12.734 33.286 0 46.02zm-357.154 65.264c-62.532-62.568-96.98-145.762-97.006-234.242 0-88.47 34.476-171.664 97.006-234.196 12.734-12.734 12.734-33.324 0-46.048-12.698-12.706-33.288-12.706-45.986 0-74.916 74.846-116.126 174.388-116.126 280.28.036 105.83 41.244 205.374 116.126 280.218 6.348 6.348 14.654 9.528 22.994 9.528 8.304 0 16.644-3.18 22.992-9.528 12.734-12.732 12.734-33.314 0-46.012zm514.452-514.486c-12.698-12.706-33.288-12.706-46.012 0-12.734 12.724-12.734 33.314 0 46.048 62.558 62.532 97.006 145.724 97.006 234.23 0 88.446-34.448 171.638-97.006 234.208-12.734 12.698-12.734 33.28 0 46.012 6.376 6.348 14.68 9.528 23.02 9.528 8.304 0 16.644-3.18 22.992-9.528 74.88-74.818 116.09-174.388 116.09-280.254 0-105.854-41.238-205.362-116.09-280.244z"/></svg>