<svg xmlns="http://www.w3.org/2000/svg" viewBox="0 0 1024 1024"><path d="M258.302 853.791h503.264v-363.383c0-128.673-103.73-233.282-232.403-233.282h-38.459c-128.673 0-232.403 104.609-232.403 233.282v363.383zm530.625 42.855h-557.986c-12.087 0-22.086 10.109-22.086 22.196v83.291c0 12.087 9.889 21.867 22.086 21.867h557.986c12.087 0 22.086-9.78 22.086-21.867v-83.291c0-12.087-9.889-22.196-22.086-22.196zm-712.042-636.992l128.234 87.687c3.846 2.637 8.131 3.846 12.417 3.846 7.033 0 13.955-3.296 18.131-9.56l23.295-34.064c6.813-9.999 4.285-23.735-5.714-30.547l-128.234-87.687c-3.846-2.637-8.131-3.846-12.417-3.846-7.033 0-13.955 3.296-18.131 9.56l-23.295 34.064c-6.923 9.999-4.395 23.625 5.714 30.547zm710.284 85.049c4.285 6.373 11.208 9.78 18.35 9.78 4.176 0 8.461-1.209 12.197-3.736l129.224-86.258c10.109-6.703 12.856-20.438 6.044-30.438l-22.966-34.393c-4.284-6.373-11.208-9.78-18.35-9.78-4.176 0-8.46 1.209-12.197 3.736l-129.113 86.258c-10.109 6.703-12.856 20.438-6.044 30.438l22.855 34.393zm-311.079-150.21c3.626 3.296 8.241 4.395 13.186 4.395h41.316c4.945 0 9.451-1.099 13.186-4.395 5.384-4.395 9.01-10.329 9.01-17.581v-155.375c0-12.087-10.109-21.537-22.196-21.537h-41.316c-12.087 0-22.196 9.45-22.196 21.537v155.375c0 7.252 3.736 13.186 9.01 17.581z"/></svg>