<svg xmlns="http://www.w3.org/2000/svg" viewBox="0 0 1024 1024"><path d="M585.408 666.294l-63.553 165.509c-3.399 8.856-11.875 14.714-21.331 14.794h-.22c-9.396 0-17.852-5.698-21.391-14.474l-172.866-428.736-61.913 127.365c-3.838 7.937-11.915 12.954-20.751 12.954h-148.736c1.699 2.899 3.019 5.718 4.778 8.636l40.143 57.895c9.976 12.914 20.791 25.649 32.606 38.463 134.302 144.878 226.783 252.152 284.058 321.042 41.242 49.759 106.194 50.378 147.577.74 54.736-66.052 141.959-168.128 266.645-304.229l-265.046.04zm170.527-649.681c-69.45.14-132.843 26.888-180.382 70.43-47.56 43.901-85.503 43.901-133.323.24-47.7-43.421-110.972-69.95-180.542-69.69-107.294.1-199.634 63.373-242.076 154.494-27.248 58.655-23.13 166.408-5.738 228.722 8.316 29.807 20.651 63.753 37.664 99.317 3.059-1.499 6.397-2.519 10.056-2.519h147.417l78.326-161.111c3.998-8.196 13.454-13.514 21.531-12.934 9.136.32 17.193 5.957 20.631 14.414l170.367 422.578 48.199-125.566c3.439-8.896 11.995-14.774 21.551-14.774h298.032c6.217 0 11.835 2.519 15.973 6.497 7.057-9.616 15.453-21.311 23.81-33.026 21.631-30.027 66.411-99.637 87.322-160.811 29.247-85.883 29.247-149.176 29.247-149.176-.3-147.856-120.388-267.445-268.065-267.085z"/></svg>