<svg xmlns="http://www.w3.org/2000/svg" viewBox="0 0 1024 1024"><path d="M1015.007 266.189l-239.243-248.107c-12.044-12.462-32.182-13.136-44.675-1.124l-721.711 696.113c-12.429 12.044-12.429 32.246-.45 44.74l239.307 248.043c12.012 12.59 32.182 13.264 44.643 1.188l721.711-696.177c12.462-12.044 12.494-32.214.418-44.675zm-715.159 646.556c-7.387 7.162-17.311 11.081-27.589 10.888-10.278-.225-20.041-4.496-27.171-11.851l-142.344-147.58c-14.838-15.384-14.421-39.922.964-54.76l65.487 67.864c8.993 9.346 23.799 9.603 33.145.674 9.346-9.025 9.539-23.799.514-33.209l-65.423-67.768 17.44-16.797 65.423 67.8c8.993 9.346 23.831 9.699 33.177.674 9.346-8.929 9.507-23.671.514-33.081l-65.423-67.8 17.408-16.797 65.455 67.832c8.993 9.314 23.831 9.635 33.145.674 9.346-9.025 9.539-23.767.514-33.177l-65.423-67.768 17.408-16.733 65.455 67.8c9.025 9.346 23.831 9.667 33.177.674 9.314-9.025 9.539-23.831.514-33.177l-65.423-67.8 17.44-16.765 108.974 112.925c8.993 9.378 23.799 9.667 33.177.707 9.346-9.025 9.539-23.831.514-33.177l-108.942-113.021 17.408-16.797 65.455 67.832c9.025 9.346 23.799 9.699 33.145.674s9.539-23.831.546-33.145l-65.455-67.8 17.44-16.797 65.455 67.832c9.025 9.314 23.831 9.667 33.177.674 9.346-8.961 9.507-23.831.514-33.177l-65.423-67.832 17.408-16.797 65.423 67.832c8.961 9.346 23.831 9.667 33.177.674s9.475-23.799.514-33.145l-65.423-67.832 17.408-16.797 65.391 67.479c9.025 9.314 23.799 9.667 33.145.642 9.346-8.961 9.539-23.767.578-33.145l-65.423-67.832 17.44-16.797 108.91 112.989c9.025 9.346 24.441 9.121 33.82.128 9.346-9.057 10.085-24.409 1.124-33.723l-109.039-113.021 125.451-121.051c7.355-7.13 17.311-11.048 27.557-10.856 10.278.193 20.073 4.432 27.203 11.851l142.409 147.547c7.098 7.355 11.048 17.311 10.856 27.557-.193 10.278-4.496 20.041-11.851 27.203l-620.445 598.38zm418.009-609.781c30.126 31.25 79.972 32.117 111.223 1.991 31.314-30.126 32.117-80.037 1.991-111.255-30.126-31.25-80.005-32.117-111.223-1.991-31.282 30.158-32.15 80.069-1.991 111.255zm34.622-77.403c12.558-12.108 32.696-11.691 44.836.803 12.076 12.59 11.691 32.663-.835 44.804-12.654 12.14-32.728 11.755-44.836-.771-12.14-12.622-11.755-32.728.835-44.836z"/></svg>