<?xml version="1.0" encoding="iso-8859-1"?>
<!-- Generator: Adobe Illustrator 16.0.0, SVG Export Plug-In . SVG Version: 6.00 Build 0)  -->
<!DOCTYPE svg PUBLIC "-//W3C//DTD SVG 1.1//EN" "http://www.w3.org/Graphics/SVG/1.1/DTD/svg11.dtd">
<svg version="1.1" id="Capa_1" xmlns="http://www.w3.org/2000/svg" xmlns:xlink="http://www.w3.org/1999/xlink" x="0px" y="0px"
	 width="490px" height="490px" viewBox="0 0 490 490" style="enable-background:new 0 0 490 490;" xml:space="preserve">
<g>
	<g>
		<path d="M0,125.891v238.219h490V125.891H0z M30.156,335.133V154.867H154.43v180.266H30.156z M182.863,335.133V154.867h124.273
			v180.266H182.863z M335.57,287.455v-34.008h18.323v-16.896H335.57v-34.008h18.323v-16.894H335.57v-30.783h42.483l-4.841,36.906
			l2.635-0.406c4.395-0.676,8.885-0.979,14.559-0.979c13.182,0,28.896,3.217,28.896,18.54c0,12.28-11.17,17.873-21.548,17.873
			c-10.085,0-19.163-3.42-22.937-5.44l-2.223-1.189l-5.231,19.469l1.359,0.76c5.712,3.19,16.516,6.6,29.7,6.6
			c26.606,0,45.918-16.643,45.918-39.573c0-12.688-5.372-23.074-15.095-29.224c-7.187-4.736-16.947-7.344-27.485-7.344
			c-2.046,0-3.746,0.065-5.493,0.223l2.369-16.215h61.206v180.265h-64.965c4.589-6.932,13.201-14.436,29.25-16.321
			c4.057-0.487,7.363-0.487,10.281-0.487h2.021l-0.209-19.902l-1.847-0.125c-3.184-0.211-6.778-0.096-10.657,0.338
			c-16.1,1.385-29.479,6.957-39.786,16.578c-5.683,5.431-10.241,12.127-13.562,19.922H335.57V304.35h18.323v-16.895H335.57
			L335.57,287.455z"/>
		<path d="M116.538,233.395c-7.187-4.736-16.948-7.345-27.486-7.345c-2.046,0-3.745,0.065-5.493,0.224l2.547-17.432h42.02v-21.033
			H68.263l-7.759,59.156l2.635-0.406c4.393-0.677,8.883-0.979,14.558-0.979c13.182,0,28.896,3.217,28.896,18.54
			c0,12.28-11.169,17.873-21.547,17.873c-10.086,0-19.163-3.42-22.936-5.439l-2.222-1.189l-5.234,19.469l1.36,0.76
			c5.713,3.191,16.515,6.601,29.701,6.601c26.606,0,45.918-16.644,45.918-39.573C131.633,249.93,126.261,239.542,116.538,233.395z"
			/>
		<path d="M248.092,224.848c-8.133,0-15.509,2.414-21.327,6.895c3.207-9.031,11.529-21.581,33.088-24.116
			c4.057-0.487,7.362-0.487,10.28-0.487h2.021l-0.21-19.903l-1.846-0.124c-3.188-0.211-6.779-0.095-10.658,0.337
			c-16.099,1.386-29.479,6.958-39.785,16.579c-12.568,12.012-19.49,29.842-19.49,50.207c0,29.619,16.845,48.759,42.915,48.759
			c22.94,0,40.239-17.516,40.239-40.742C283.32,240.229,268.834,224.848,248.092,224.848z M225.675,253.94
			c2.979-6.114,9.221-10.065,15.904-10.065c10.405,0,16.87,7.49,16.87,19.544c0,12.088-6.243,20.209-15.535,20.209
			c-13.136,0-18.104-12.447-18.373-24.051C224.541,257.276,224.898,255.492,225.675,253.94z"/>
	</g>
</g>
<g>
</g>
<g>
</g>
<g>
</g>
<g>
</g>
<g>
</g>
<g>
</g>
<g>
</g>
<g>
</g>
<g>
</g>
<g>
</g>
<g>
</g>
<g>
</g>
<g>
</g>
<g>
</g>
<g>
</g>
</svg>
