<?xml version="1.0" encoding="utf-8"?>
<!-- Generator: Adobe Illustrator 19.2.1, SVG Export Plug-In . SVG Version: 6.00 Build 0)  -->
<svg version="1.1" id="Layer_1" xmlns="http://www.w3.org/2000/svg" xmlns:xlink="http://www.w3.org/1999/xlink" x="0px" y="0px"
	 viewBox="0 0 1296 1024" style="enable-background:new 0 0 1296 1024;" xml:space="preserve">
<path d="M926.8,670.6c-79.8,0-143.7,63.8-143.7,143.7S847,957.9,926.8,957.9c79.8,0,143.7-63.8,143.7-143.7
	S1010.6,670.6,926.8,670.6z M926.8,930c-63.8,0-115.7-51.9-115.7-115.7s51.9-115.7,115.7-115.7c63.8,0,115.7,51.9,115.7,115.7
	S990.6,930,926.8,930z M1010.6,818.3c0,46.3-37.5,83.8-83.8,83.8S843,864.5,843,818.3c0-46.3,37.5-83.8,83.8-83.8
	S1010.6,772,1010.6,818.3z M344.2,670.6c-79.8,0-143.7,63.8-143.7,143.7s63.8,143.7,143.7,143.7c79.8,0,143.7-63.8,143.7-143.7
	S424,670.6,344.2,670.6L344.2,670.6z M344.2,930c-63.8,0-115.7-51.9-115.7-115.7s51.9-115.7,115.7-115.7
	c63.8,0,115.7,51.9,115.7,115.7S408,930,344.2,930z M428,818.3c0,46.3-37.5,83.8-83.8,83.8s-83.8-37.5-83.8-83.8
	c0-46.3,37.5-83.8,83.8-83.8S428,772,428,818.3z M92.8,343.4l47.9-95.8h79.8l71.8-103.8h67.8L424,56.1l51.9,43.9l123.7-4l63.8,59.9
	v59.9h71.8l51.9,47.9c0,0-20,4-35.9,16c-12,12-31.9,35.9-31.9,35.9L92.8,343.4L92.8,343.4z M1242,594.8l-95.8-43.9l-12-95.8
	c-8-51.9-47.9-91.8-99.8-91.8l-83.8-4c-20,0-39.9,12-47.9,31.9l-35.9,139.7l-51.9-4l87.8-183.6l215.5-31.9l-8-59.9l-299.3,12
	l-79.8,71.8L92.8,367.3L36.9,511l159.6,163.6l12,12c31.9-35.9,79.8-55.9,131.7-55.9c103.8,0,187.6,83.8,187.6,187.6v16h211.5
	c-4-43.9,8-91.8,43.9-143.7c8-12,20-23.9,35.9-31.9c143.7-83.8,295.3,20,295.3,155.6c0,23.9-4,47.9-12,71.8h87.8
	c31.9,0,59.9-27.9,59.9-59.9V606.8C1250,602.8,1246,598.8,1242,594.8L1242,594.8z M643.5,574.8H511.8l43.9-143.7l-119.7,4
	l-51.9,139.7H260.4l47.9-139.7l-135.7,8l-35.9,99.8L76.8,495l43.9-95.8l606.6-35.9L643.5,574.8L643.5,574.8z M1050.5,554.9l-75.8-4
	c-12,0-20-12-16-23.9l16-107.7c0-12,12-16,20-16h20c27.9,0,47.9,23.9,51.9,51.9l4,79.8C1074.4,542.9,1062.5,554.9,1050.5,554.9
	L1050.5,554.9z"/>
</svg>
