<svg xmlns="http://www.w3.org/2000/svg" viewBox="0 0 1288 1024"><path d="M93.854 909.158c-47.899 0-83.823-35.924-87.814-83.823-3.991-59.873 35.924-103.78 99.788-103.78h482.977c59.873 0 103.78 51.889 99.788 99.788-3.991 55.88-39.915 87.814-99.788 87.814h-494.95000000000005zm407.138-55.882h-311.34c-7.983 11.975-11.975 19.957-19.957 31.933h351.255c-7.983-11.975-11.975-19.957-19.957-31.933zm-311.342-71.847h311.34c3.991-7.983 11.973-15.966 19.957-31.933h-351.255c7.983 11.975 15.965 23.949 19.957 31.933zm-87.812 115.754c39.915 0 79.831-35.924 79.831-75.84s-35.924-79.831-79.831-79.831c-43.907 0-75.84 31.933-79.831 75.84 0 43.907 35.924 79.831 79.831 79.831zm566.799-75.839c0-43.907-31.933-79.831-75.84-79.831s-79.831 35.924-79.831 75.84c0 39.915 35.924 79.831 75.84 79.831 43.907 0 79.831-35.924 79.831-75.84zm-570.791 51.889c35.924 3.991 55.88-27.943 55.88-51.889 0-27.943-23.949-55.88-51.889-55.88-31.933 0-55.88 23.949-55.88 55.88 0 27.943 19.957 51.889 51.889 51.889zm494.951 0c27.943 0 51.889-23.949 51.889-55.88 0-27.943-27.943-55.88-51.889-55.88-27.943 0-55.88 27.943-55.88 55.88 3.991 31.933 27.943 55.88 55.88 55.88zm143.695-227.517l39.915-75.84h75.84l19.957 79.831zm127.729-95.797h-43.907l47.899-67.857h55.88l27.943 43.907-31.933 31.933-31.933 75.84zm135.714-15.965l31.933 115.755h-127.73l31.933-79.831 27.943-35.924zm-299.368-339.281c-39.915 0-71.848 31.933-71.848 71.848s31.933 71.848 71.848 71.848 71.848-31.933 71.848-71.848-31.933-71.848-71.848-71.848zm0 131.72c-31.933 0-55.88-23.949-55.88-55.88s23.949-55.88 55.88-55.88c31.933 0 55.88 23.949 55.88 55.88 0 27.943-23.949 55.88-55.88 55.88zm35.925-55.882c0 19.84-16.082 35.924-35.924 35.924s-35.924-16.082-35.924-35.924c0-19.84 16.082-35.924 35.924-35.924s35.924 16.082 35.924 35.924zm379.196-99.787c-39.915 0-71.848 31.933-71.848 71.848s31.933 71.848 71.848 71.848 71.848-31.933 71.848-71.848c3.991-39.915-27.943-71.848-71.848-71.848zm0 131.719c-31.933 0-55.88-23.949-55.88-55.88s23.949-55.88 55.88-55.88c31.933 0 55.88 23.949 55.88 55.88 3.991 27.943-23.949 55.88-55.88 55.88zm35.924-59.872c0 19.84-16.082 35.924-35.924 35.924s-35.924-16.082-35.924-35.924c0-19.84 16.082-35.924 35.924-35.924s35.924 16.082 35.924 35.924zm-522.893 35.922s-59.873 231.509-95.796 287.39h-107.772v-391.172c-15.966-19.957-31.933-39.915-47.899-59.873h-279.407l-35.924 47.899v283.399h-119.747c-15.965 0-31.933 3.991-43.907 19.957v239.491c219.535-3.991 690.536-7.983 690.536-7.983l119.747-359.24-47.899-11.975-31.933-47.899zm-435.077 203.57l-7.983 3.991c-7.983-3.991-15.965-11.975-19.957-15.966-11.975-15.965-27.943-31.933-39.915-43.907s-15.966-27.943-15.966-43.907v-191.594c0-7.983 0-19.957 3.991-27.943h83.823c-3.991 103.78-3.991 211.553-3.991 319.323zm31.933-323.315h131.72c15.966 27.943 27.943 55.88 27.943 91.806l3.991 207.56c0 7.983 0 15.965-3.991 23.949h-163.654c-3.991-31.933-3.991-299.367 3.991-323.315zm167.643 435.078h-115.755c-15.966-19.957-35.924-39.915-51.889-63.865h167.646v63.865zm778.352-387.179h-7.983c7.983 7.983 11.973 19.957 11.973 35.924 0 31.933-23.949 55.88-55.88 55.88-11.973 0-27.943-3.991-35.924-11.975l-3.991 3.991c-3.991 127.73-11.973 251.467-15.965 383.188-59.873-3.991-271.424-7.983-335.289-11.975 23.949 51.889 47.899 99.788 75.84 151.677 35.924 3.991 219.535 7.983 255.459 7.983 23.949-35.924 43.907-71.848 67.857-103.78s27.943-67.857 31.933-103.78c3.991-123.739 11.975-247.476 19.957-371.213-3.991-7.982-7.983-23.949-7.983-35.924zm-111.764 35.924c0-31.933 23.949-55.88 55.88-55.88 11.973 0 19.957 3.991 27.943 7.983l3.991-11.973c-147.687 11.973-287.39 19.957-431.086 31.933 23.949 7.983 39.915 27.943 39.915 51.889 0 15.965-3.991 27.943-15.966 39.915 43.907-3.991 83.823-7.982 123.739-7.982 55.88-3.991 115.755-7.983 171.636-11.975 11.973 0 19.957-3.991 27.943-11.975 0-7.983-3.991-19.957-3.991-31.933z"/></svg>