<svg xmlns="http://www.w3.org/2000/svg" viewBox="0 0 1024 1024"><path d="M215.274 438.775l125.357-44.289v-284.243h-125.357zm343.598 0l125.453-44.289v-284.243h-125.453zm-496.743 585.225h899.79v-306.1h-899.79v306.1zm430.931-258.941h96.517v154.437h-96.517v-154.437zm-170.603 0h96.565v154.437h-96.565v-154.437zm-176.916 0h96.469v154.437h-96.469v-154.437zm603.926-228.38l-24.631-125.023-312.796 125.023-37.449-125.023-312.461 125.023v133.297h899.743v-133.297zm-590.869-446.81c15.735-2.965 27.884-11.814 37.497-21.475 9.996-9.805 17.649-19.61 29.079-25.492 10.809-6.074 24.584-7.796 33.48-6.026 8.513 1.483 13.966 5.165 20.279 14.875 5.931 9.279 10.235 21.092 15.496 33.48h2.535c4.496-13.296 4.687-27.453.143-41.754-2.391-7.126-6.505-14.444-13.392-20.231-6.744-5.931-16.74-8.753-25.014-7.796-17.218 2.104-27.31 12.961-38.023 20.423-10.57 7.652-21.523 15.975-32.619 20.949-11.431 4.926-22.814 8.322-32.762 8.944-10.092.239-17.936-3.013-25.779-8.992-16.214-12.053-29.175-34.293-42.806-56.772l-2.535.478c-1.722 26.975 4.783 55.768 28.123 77.625 11.861 10.618 30.706 15.448 46.298 11.766zm388.317 2.2c11.861-2.439 20.279-9.326 26.927-16.931 6.457-7.27 11.766-14.492 19.61-18.27 7.557-4.065 17.649-3.778 22.575-2.009 4.448 1.626 6.552 2.248 11.335 8.322 4.305 5.692 8.035 13.535 13.153 22.001h2.583c4.639-9.374 5.309-19.562 2.439-30.275-1.578-5.309-4.639-10.953-9.9-15.496-5.165-4.735-13.153-6.839-19.514-5.979-13.153 2.057-19.753 10.953-27.119 16.405-7.318 5.739-15.162 10.857-23.34 13.87-8.035 2.487-15.975 4.209-21.905 4.257-6.17-.335-10.044-2.391-14.827-5.787-10.187-6.935-20.183-21.331-32.045-36.302l-2.535.526c-3.587 19.418 0 40.367 17.266 57.107 8.992 8.083 23.627 11.67 35.297 8.561z"/></svg>