<svg xmlns="http://www.w3.org/2000/svg" viewBox="0 0 1024 1024"><path d="M219.429 658.286v-365.714s.183-16.457 8.741-36.571h-155.026s-73.143 0-73.143 73.143v256c0 73.143 73.143 73.143 73.143 73.143v365.714h219.429v-292.571s-73.143 0-73.143-73.143zm0-438.857c19.017 0 36.608-5.266 52.187-13.751 2.158-1.317 4.571-2.487 6.875-3.767 30.391-19.493 50.651-53.394 50.651-92.197 0-60.599-49.115-109.714-109.714-109.714s-109.714 49.115-109.714 109.714 49.115 109.714 109.714 109.714zm731.428 36.571h-154.99c8.521 20.114 8.704 36.571 8.704 36.571v365.714l-73.143 73.143v292.571h219.429v-365.714s73.143 0 73.143-73.143v-256s0-73.143-73.143-73.143zm-205.531-54.162c2.377 1.28 4.901 2.487 7.095 3.84 15.579 8.485 33.134 13.751 52.151 13.751 60.599 0 109.714-49.115 109.714-109.714s-49.115-109.714-109.714-109.714-109.714 49.115-109.714 109.714c0 38.729 20.187 72.594 50.469 92.123zm-123.612-92.124c0 60.594-49.121 109.714-109.714 109.714s-109.714-49.121-109.714-109.714c0-60.594 49.121-109.714 109.714-109.714s109.714 49.121 109.714 109.714zm109.715 219.429s0-73.143-73.143-73.143h-292.571s-73.143 0-73.143 73.143v256c0 73.143 73.143 73.143 73.143 73.143v365.714h292.571v-365.714s73.143 0 73.143-73.143v-256z"/></svg>