<svg xmlns="http://www.w3.org/2000/svg" viewBox="0 0 1024 1024"><path d="M1020.781 455.149c-1.619-14.394-18.402-25.211-32.915-25.211-46.92 0-88.556-27.55-106.018-70.158-17.839-43.64-6.336-94.534 28.632-126.611 11.007-10.062 12.344-26.906 3.113-38.607-24.015-30.495-51.31-58.042-81.112-81.915-11.67-9.365-28.792-8.062-38.912 3.143-30.518 33.799-85.337 46.36-127.697 28.686-44.082-18.543-71.88-63.212-69.159-111.161.895-15.061-10.112-28.156-25.127-29.905-38.245-4.423-76.825-4.561-115.185-.305-14.844 1.638-25.851 14.425-25.352 29.295 1.669 47.477-26.464 91.364-70.108 109.241-41.853 17.096-96.287 4.641-126.744-28.857-10.066-11.034-26.91-12.39-38.637-3.25-30.686 24.076-58.594 51.645-82.83 81.889-9.453 11.758-8.062 28.8 3.056 38.916 35.635 32.271 47.141 83.607 28.628 127.75-17.675 42.085-61.376 69.209-111.405 69.209-16.234-.522-27.798 10.375-29.573 25.135-4.503 38.466-4.557 77.66-.221 116.438 1.608 14.455 18.902 25.177 33.574 25.177 44.585-1.139 87.39 26.464 105.347 70.162 17.899 43.64 6.393 94.504-28.628 126.607-10.954 10.062-12.344 26.88-3.113 38.58 23.79 30.301 51.089 57.874 80.997 81.946 11.731 9.453 28.8 8.119 38.969-3.086 30.633-33.883 85.447-46.421 127.639-28.712 44.192 18.486 71.99 63.151 69.27 111.127-.888 15.069 10.173 28.187 25.127 29.909 19.564 2.282 39.247 3.421 58.983 3.421 18.734 0 37.472-1.029 56.205-3.113 14.848-1.638 25.847-14.425 25.348-29.322-1.718-47.45 26.464-91.338 70.051-109.184 42.135-17.21 96.34-4.614 126.801 28.849 10.123 11.011 26.849 12.341 38.641 3.231 30.629-24.018 58.48-51.565 82.83-81.893 9.449-11.731 8.115-28.8-3.059-38.912-35.635-32.271-47.199-83.615-28.686-127.727 17.404-41.525 59.482-69.407 104.741-69.407l6.332.164c14.68 1.193 28.187-10.116 29.966-25.1 4.511-38.5 4.564-77.66.229-116.438zm-507.971 228.715c-94.176 0-170.78-76.604-170.78-170.78 0-94.172 76.604-170.78 170.78-170.78 94.172 0 170.777 76.608 170.777 170.78 0 94.176-76.604 170.78-170.777 170.78z"/></svg>