<svg xmlns="http://www.w3.org/2000/svg" viewBox="0 0 1024 1024"><path d="M989.152 362.976l.32-.192-143.584-250.272 3.104-.672c12.96-2.816 22.24-14.272 22.24-27.552v-12.8c0-17.952-16.576-31.328-34.112-27.552l-662.112 142.816c-12.96 2.816-22.24 14.272-22.24 27.552v12.8c0 17.44 15.616 30.4 32.576 27.68l-150.848 262.912.32.192h-34.816c0 89.408 94.176 161.888 210.304 161.888s210.304-72.48 210.304-161.888h-29.856l.32-.192-156.8-273.312 242.496-52.32v726.912c-117.76 9.088-146.272 61.632-146.272 61.632h363.712s-28.64-52.768-147.008-61.696v-742.048l219.488-47.36-133.76 233.184.32.192h-29.888c0 89.408 94.144 161.888 210.304 161.888s210.304-72.48 210.304-161.888h-34.848zm-906.016 154.944l129.632-226.016 129.632 226.016h-259.296zm598.4-154.944l129.632-226.016 129.664 226.016h-259.296z"/></svg>